<svg preserveAspectRatio="none" width="100%" height="100%" overflow="visible" style="display: block;" viewBox="0 0 24 21.9004" fill="none" xmlns="http://www.w3.org/2000/svg">
<g id="Group 2462">
<path id="Subtract" d="M15.6714 0C16.8697 0.00033134 17.8001 0.989194 17.8003 2.15723V4.68848H15.8003V2.15723C15.8001 2.04816 15.7202 2.00039 15.6714 2H8.33057C8.28183 2 8.20084 2.04771 8.20068 2.15723V4.68848H6.19971V2.15723C6.19987 0.988999 7.13194 0 8.33057 0H15.6714Z" fill="var(--fill-0, #BA64FF)"/>
<rect id="Rectangle 34626222" y="3.45912" width="24" height="18.4413" rx="2" fill="url(#paint0_linear_0_100)"/>
<path id="Rectangle 34626223" d="M0 5.45912C0 4.35455 0.895431 3.45912 2 3.45912H22C23.1046 3.45912 24 4.35455 24 5.45912V9.42809C24 10.2724 23.4698 11.0257 22.6751 11.3107L13.0126 14.7755C12.3579 15.0102 11.6421 15.0102 10.9874 14.7755L1.32493 11.3107C0.530183 11.0257 0 10.2724 0 9.42809V5.45912Z" fill="url(#paint1_linear_0_100)"/>
<rect id="Rectangle 34626224" x="9.6001" y="13.9092" width="4.8" height="1.84413" rx="0.5" fill="url(#paint2_linear_0_100)"/>
</g>
<defs>
<linearGradient id="paint0_linear_0_100" x1="12" y1="3.45912" x2="12" y2="21.9004" gradientUnits="userSpaceOnUse">
<stop stop-color="#652499"/>
<stop offset="1" stop-color="#A83CFF"/>
</linearGradient>
<linearGradient id="paint1_linear_0_100" x1="12" y1="3.45912" x2="12" y2="15.1386" gradientUnits="userSpaceOnUse">
<stop stop-color="#A83CFF"/>
<stop offset="1" stop-color="#BF70FF"/>
</linearGradient>
<linearGradient id="paint2_linear_0_100" x1="12.0001" y1="13.9092" x2="12.0001" y2="15.7533" gradientUnits="userSpaceOnUse">
<stop stop-color="white"/>
<stop offset="1" stop-color="#E4F0FF"/>
</linearGradient>
</defs>
</svg>
